<svg xmlns="http://www.w3.org/2000/svg" width="17" height="30"><rect id="backgroundrect" width="100%" height="100%" x="0" y="0" fill="none" stroke="none" class="selected" style=""/><defs><style>.a{opacity:0.653;}.b{fill:#e27866;}</style></defs><g class="currentLayer" style=""><title>Layer 1</title><g class="a" id="svg_1"><path class="b" d="M15.60900033569336,0.006000000000000002 L11.723000335693357,0 c-4.371,0 -7.2,2.9 -7.2,7.383 v3.4 H0.6120003356933594 a0.6120000000000001,0.6120000000000001 0 0 0 -0.6120000000000001,0.6120000000000001 v4.932 a0.6120000000000001,0.6120000000000001 0 0 0 0.6120000000000001,0.6120000000000001 H4.523000335693361 V29.388 a0.6120000000000001,0.6120000000000001 0 0 0 0.6120000000000001,0.6120000000000001 h5.1 a0.6120000000000001,0.6120000000000001 0 0 0 0.6120000000000001,-0.6120000000000001 V16.943 H15.42300033569336 a0.6120000000000001,0.6120000000000001 0 0 0 0.6120000000000001,-0.6120000000000001 l0,-4.932 a0.6120000000000001,0.6120000000000001 0 0 0 -0.6120000000000001,-0.6120000000000001 H10.850000335693359 V7.9 c0,-1.387 0.33100000000000007,-2.091 2.137,-2.091 h2.621 A0.6120000000000001,0.6120000000000001 0 0 0 16.223000335693357,5.2 V0.6180000000000001 A0.6120000000000001,0.6120000000000001 0 0 0 15.60900033569336,0.006000000000000002 z" id="svg_2"/></g></g></svg>